<svg width="16" height="16" viewBox="0 0 16 16" fill="none" xmlns="http://www.w3.org/2000/svg">
<path fill-rule="evenodd" clip-rule="evenodd" d="M6.19351 10.4052C8.96026 10.4052 11.325 10.8244 11.325 12.4992C11.325 14.1739 8.97601 14.6052 6.19351 14.6052C3.42601 14.6052 1.06201 14.1897 1.06201 12.5142C1.06201 10.8387 3.41026 10.4052 6.19351 10.4052Z" stroke="#7B6F72" stroke-width="1.2" stroke-linecap="round" stroke-linejoin="round"/>
<path fill-rule="evenodd" clip-rule="evenodd" d="M6.19355 8.01488C4.37705 8.01488 2.90405 6.54263 2.90405 4.72613C2.90405 2.90963 4.37705 1.43738 6.19355 1.43738C8.0093 1.43738 9.4823 2.90963 9.4823 4.72613C9.48905 6.53588 8.02655 8.00813 6.2168 8.01488H6.19355Z" stroke="#7B6F72" stroke-width="1.2" stroke-linecap="round" stroke-linejoin="round"/>
<path d="M11.3623 7.16121C12.5631 6.99246 13.4878 5.96196 13.4901 4.71471C13.4901 3.48546 12.5938 2.46546 11.4186 2.27271" stroke="#7B6F72" stroke-width="1.2" stroke-linecap="round" stroke-linejoin="round"/>
<path d="M12.9465 10.0492C14.1098 10.2224 14.922 10.6304 14.922 11.4704C14.922 12.0487 14.5395 12.4237 13.9215 12.6584" stroke="#7B6F72" stroke-width="1.2" stroke-linecap="round" stroke-linejoin="round"/>
</svg>
