<svg width="375" height="390" viewBox="0 0 375 390" fill="none" xmlns="http://www.w3.org/2000/svg">
<defs>
<clipPath id="clip0_698_3702">
<rect width="375" height="406" fill="white" transform="translate(0 -16)"/>
</clipPath>
</defs>
<g clip-path="url(#clip0_698_3702)">
<path d="M141.3 348.412C121.1 399.229 126.867 433.562 126.867 433.562C146.033 437.066 165.5 438.5 184.967 437.867C209.633 437.066 232.433 429.392 253.1 417.747C253.8 389.519 244.167 364.328 237.3 350.014C193.133 371.402 154.6 355.419 141.3 348.412Z" fill="#AB8DA8"/>
<path d="M147.233 334.732C145.067 339.404 143.067 343.975 141.333 348.412C154.6 355.419 193.167 371.435 237.3 350.014C233.533 342.173 230.567 337.602 230.567 337.602C230.567 337.602 174.4 276.475 147.233 334.732Z" fill="#FEF9EF"/>
<path d="M118.533 224.625C118.533 224.625 117 225.192 116.733 240.74C116.467 256.289 115.3 287.219 115.3 287.219C115.3 287.219 101.2 274.106 100.167 267.5C99.1332 260.893 99.5666 254.954 98.8666 251.317C98.1666 247.681 98.0332 237.737 98.3332 235.869C98.6332 234.001 93.8999 233.7 92.5999 236.47C91.2999 239.239 90.8666 248.448 90.1999 248.782C89.5332 249.115 81.8999 249.816 81.1665 251.484C80.4332 253.153 81.7332 256.189 80.5999 258.725C79.4665 261.26 80.6999 263.062 80.5999 264.997C80.4999 266.933 80.0332 267.667 80.8999 270.603C81.7665 273.539 81.9332 276.008 83.3332 276.475L84.7332 276.942L89.6332 278.611C89.6332 278.611 110.633 325.957 121.033 326.991C131.433 328.026 136.867 319.751 138.167 313.078C139.467 306.405 146.433 266.432 146.433 266.432L118.533 224.625Z" fill="#FFEDE5"/>
<path d="M130.333 257.523L141.867 292.591L146.433 266.399L130.333 257.523Z" fill="#E0855C"/>
<path d="M115.3 287.186C115.3 287.186 125.1 295.427 128.333 302.2C128.333 302.2 123.1 288.32 115.5 281.881L115.3 287.186Z" fill="#E0855C"/>
<path d="M86.3665 276.275C86.3665 276.275 96.5998 276.008 97.4331 275.374C98.2664 274.74 98.2998 271.737 97.8664 271.37C97.8664 271.37 98.6998 266.999 97.9331 265.865C97.9331 265.865 98.2331 262.628 97.8998 260.727C97.8998 260.727 99.5998 270.469 99.3998 272.004C99.1998 273.539 99.9998 276.142 95.3998 276.909C90.7998 277.677 86.3665 276.275 86.3665 276.275Z" fill="#E0855C"/>
<path d="M97.9332 265.932C97.8999 265.932 97.8999 265.932 97.8666 265.932C97.6999 265.898 97.5666 265.731 97.5999 265.565C98.0332 262.862 97.3332 257.624 97.3332 257.59V257.523V257.457C97.6332 256.289 98.2666 252.986 97.3999 251.985C96.6333 251.084 89.2332 250.85 84.7332 250.917C84.5666 250.917 84.3999 250.784 84.3999 250.583C84.3999 250.383 84.5332 250.25 84.7332 250.25C86.7332 250.216 96.6999 250.15 97.8999 251.551C99.0999 252.952 98.1666 256.856 97.9999 257.557C98.0666 258.191 98.6666 262.995 98.2333 265.665C98.2333 265.832 98.0666 265.932 97.9332 265.932Z" fill="#472938"/>
<path d="M97.6665 257.857C97.6665 257.857 97.6332 257.857 97.6665 257.857L86.9332 257.357C86.7332 257.357 86.5999 257.19 86.5999 257.023C86.5999 256.823 86.7332 256.689 86.9332 256.689L97.6665 257.19C97.8665 257.19 97.9999 257.357 97.9999 257.523C97.9999 257.724 97.8332 257.857 97.6665 257.857Z" fill="#472938"/>
<path d="M97.8334 271.704H87.2667C87.0667 271.704 86.9333 271.571 86.9333 271.37C86.9333 271.17 87.0667 271.037 87.2667 271.037H97.8334C98.0334 271.037 98.1667 271.17 98.1667 271.37C98.1667 271.571 98.0334 271.704 97.8334 271.704Z" fill="#472938"/>
<path d="M98.0331 264.43H85.8997C85.6997 264.43 85.5664 264.297 85.5664 264.097C85.5664 263.896 85.6997 263.763 85.8997 263.763H98.0331C98.2331 263.763 98.3664 263.896 98.3664 264.097C98.3664 264.297 98.2331 264.43 98.0331 264.43Z" fill="#472938"/>
<path d="M278.967 208.375L299.166 207.608C300.033 207.575 300.766 208.242 300.8 209.109L302.366 250.817C302.4 251.684 301.733 252.418 300.866 252.452L280.667 253.219C279.8 253.253 279.067 252.585 279.033 251.718L277.467 210.01C277.433 209.109 278.1 208.409 278.967 208.375Z" fill="#3B2645"/>
<path d="M280.6 251.851C280.467 251.851 280.367 251.751 280.367 251.618L278.8 209.91C278.8 209.843 278.833 209.777 278.867 209.743C278.9 209.71 278.967 209.677 279.033 209.677L299.233 208.909C299.367 208.909 299.467 209.009 299.467 209.143L301.033 250.85C301.033 250.984 300.933 251.084 300.8 251.084L280.6 251.851Z" fill="#FEF9EF"/>
<path d="M216.333 203.204C216.333 203.204 237.533 205.339 241.467 222.556C245.4 239.773 252.667 280.679 252.667 280.679C252.667 280.679 268.133 255.889 269.367 251.951C270.6 248.014 274.6 234.701 274.467 230.163C274.333 225.626 278.767 228.862 278.767 234.267L279.433 252.152C279.467 252.752 279.967 253.219 280.567 253.186H280.6L301.067 251.651C301.767 251.618 302.267 251.017 302.233 250.316V250.083C302.233 250.083 300.767 247.047 301.2 245.645C301.633 244.244 305.133 244.11 305.533 244.444C305.933 244.778 308.1 248.948 308.033 250.083C307.967 251.217 305.433 254.754 303.767 255.288C302.1 255.822 285.5 259.826 282.1 264.964C278.7 270.102 263.833 315.113 251.767 318.583C239.7 322.053 227.933 289.321 225.167 279.745C222.4 270.169 216.333 203.204 216.333 203.204Z" fill="#FFEDE5"/>
<path d="M221.667 256.289C222.967 267.333 224.267 276.609 225.166 279.712C226.466 284.183 229.733 293.759 234.1 302.301L235.433 239.406L221.667 256.289Z" fill="#E0855C"/>
<path d="M301.667 232.566C301.667 232.566 308.9 236.269 308.767 237.837C308.633 239.406 307.267 242.208 305.867 242.075C304.467 241.941 301.833 240.54 301.1 238.905C300.367 237.27 300 232.032 301.667 232.566Z" fill="#FFEDE5"/>
<path d="M302.033 238.004C302.033 238.004 309.266 241.708 309.133 243.276C309 244.844 307.633 247.647 306.233 247.514C304.833 247.38 302.2 245.979 301.466 244.344C300.733 242.709 300.366 237.47 302.033 238.004Z" fill="#FFEDE5"/>
<path d="M302.033 225.959C302.033 225.959 309.266 229.663 309.133 231.231C309 232.799 307.633 235.602 306.233 235.469C304.833 235.335 302.2 233.934 301.466 232.299C300.733 230.664 300.366 225.392 302.033 225.959Z" fill="#FFEDE5"/>
<path d="M246.133 293.926C246.066 293.926 246.033 293.926 245.966 293.892C245.8 293.826 245.733 293.592 245.833 293.459L252.366 280.546C252.433 280.379 252.666 280.312 252.8 280.413C252.966 280.479 253.033 280.713 252.933 280.846L246.4 293.759C246.366 293.859 246.266 293.926 246.133 293.926Z" fill="#472938"/>
<path d="M152.5 312.244C152.533 323.088 147.233 334.699 147.233 334.699C147.233 334.699 183.933 355.319 230.533 337.568C230.533 337.568 224.833 322.887 225.566 307.539C187.9 300.532 152.5 312.244 152.5 312.244Z" fill="#FFEDE5"/>
<path d="M118.533 224.625C115.8 228.729 126.333 249.149 136.4 269.802C145.567 249.282 140.2 224.358 137.1 213.647C130 216.383 121.3 220.421 118.533 224.625Z" fill="#FFEDE5"/>
<path d="M225.567 307.572C225.633 305.971 225.8 304.369 226.033 302.768C226.167 301.8 226.333 300.766 226.5 299.665C196.6 291.49 161 300.832 150.967 303.802C151.933 307.105 152.5 309.975 152.5 312.244C152.5 312.244 187.9 300.532 225.567 307.572Z" fill="#FEF9EF"/>
<path d="M136.4 270.903C136.267 270.903 136.167 270.837 136.1 270.703L128.667 254.687C128.6 254.521 128.667 254.32 128.833 254.254C129 254.187 129.2 254.254 129.267 254.42L136.7 270.436C136.767 270.603 136.7 270.803 136.533 270.87C136.5 270.903 136.433 270.903 136.4 270.903Z" fill="#472938"/>
<path d="M193.4 341.606C193.915 341.606 194.333 341.187 194.333 340.671C194.333 340.156 193.915 339.737 193.4 339.737C192.884 339.737 192.467 340.156 192.467 340.671C192.467 341.187 192.884 341.606 193.4 341.606Z" fill="#E0855C"/>
<path d="M233.833 241.374C233.833 241.141 233.833 240.907 233.833 240.707C233.833 240.607 233.833 240.473 233.833 240.373C233.833 240.106 233.833 239.873 233.8 239.606C233.8 239.539 233.8 239.472 233.8 239.372C233.8 239.039 233.766 238.738 233.766 238.438V238.238C233.766 238.004 233.733 237.737 233.733 237.504C233.733 237.404 233.733 237.304 233.7 237.204C233.7 237.003 233.666 236.803 233.666 236.636L233.633 236.303C233.633 236.136 233.6 235.936 233.566 235.769C233.566 235.669 233.533 235.569 233.533 235.435C233.5 235.235 233.5 235.068 233.467 234.868C233.467 234.768 233.433 234.701 233.433 234.601C233.4 234.334 233.367 234.067 233.3 233.8C230.7 217.985 216.3 203.17 216.3 203.17C216.3 203.17 221.9 225.425 223.7 228.028C230.266 237.571 233.933 243.31 233.467 250.917C233.5 250.517 233.533 250.15 233.566 249.749C233.566 249.649 233.566 249.549 233.566 249.449C233.6 249.149 233.6 248.848 233.633 248.581C233.633 248.481 233.633 248.348 233.666 248.248C233.666 247.981 233.7 247.714 233.7 247.414L233.733 247.08C233.733 246.78 233.766 246.513 233.766 246.246C233.766 246.146 233.766 246.079 233.766 245.979C233.8 245.245 233.833 244.511 233.833 243.777C233.833 243.677 233.833 243.61 233.833 243.51C233.833 243.243 233.833 242.976 233.833 242.709V242.375C233.833 242.142 233.833 241.908 233.833 241.675V241.374Z" fill="#FFEDE5"/>
<path d="M223.7 228.061C221.9 225.459 216.333 203.204 216.333 203.204H212.1L147.233 210.144C147.233 210.144 142.667 211.478 137.1 213.614C140.167 224.324 145.567 249.282 136.4 269.769C142.433 282.181 148.267 294.66 150.933 303.802C160.967 300.799 196.567 291.49 226.467 299.665C228.433 287.052 232.233 266.966 233.467 250.95C233.933 243.343 230.267 237.604 223.7 228.061Z" fill="#AB8DA8"/>
<path d="M158.1 286.185C156.5 286.185 154.833 285.985 153.067 285.551C152.9 285.517 152.767 285.317 152.833 285.15C152.867 284.984 153.067 284.85 153.233 284.917C159.567 286.518 164.7 284.683 170.1 282.781C175.233 280.946 180.533 279.078 187.333 279.845C201.067 281.38 223.433 277.677 223.667 277.643C223.867 277.61 224.033 277.743 224.067 277.91C224.1 278.077 223.967 278.277 223.8 278.31C223.567 278.344 201.1 282.081 187.3 280.546C180.667 279.812 175.433 281.647 170.367 283.449C166.3 284.817 162.433 286.185 158.1 286.185Z" fill="#472938"/>
<path d="M209.367 114.25C209.367 114.25 226.767 115.985 221.533 139.141C216.3 162.297 221.467 161.263 226 173.508C230.533 185.753 206.833 177.645 206.833 177.645C206.833 177.645 218.9 195.73 154.767 187.922C101.867 181.482 137.167 153.889 137.167 153.889C137.167 153.889 121.267 155.991 140.3 139.174C153.7 127.329 160.833 83.7868 209.367 114.25Z" fill="#3B2645"/>
<path d="M197.833 178.313C197.833 178.313 192.467 197.164 199.833 200.668C205.5 203.371 212.1 203.204 212.1 203.204C212.1 203.204 209.833 253.186 181.833 253.72C153.833 254.254 147.233 210.144 147.233 210.144C147.233 210.144 158.633 206.14 162.033 198.299C165.433 190.458 165.6 179.48 165.6 179.48L197.833 178.313Z" fill="#FFEDE5"/>
<path d="M211.285 164.06C214.138 159.113 214.073 153.729 211.14 152.033C208.206 150.338 203.515 152.974 200.662 157.921C197.808 162.868 197.873 168.253 200.807 169.948C203.74 171.643 208.431 169.007 211.285 164.06Z" fill="#E0855C"/>
<path d="M204.3 164.432C204.2 164.432 204.133 164.399 204.067 164.332C203.933 164.199 203.933 163.999 204.067 163.865L209.1 159.127C209.233 158.994 209.433 158.994 209.567 159.127C209.7 159.261 209.7 159.461 209.567 159.594L204.533 164.332C204.467 164.432 204.4 164.432 204.3 164.432Z" fill="#472938"/>
<path d="M158.838 166.188C162.134 165.408 163.741 160.269 162.427 154.71C161.114 149.151 157.377 145.277 154.08 146.058C150.784 146.838 149.177 151.978 150.491 157.536C151.805 163.095 155.542 166.969 158.838 166.188Z" fill="#FFEDE5"/>
<path d="M196.167 194.395C195.167 187.655 197.833 178.279 197.833 178.279L165.567 179.48C165.567 179.48 165.533 181.916 165.133 185.32C165.133 185.353 181.233 204.872 196.167 194.395Z" fill="#E0855C"/>
<path d="M157.967 159.361C157.867 159.361 157.767 159.294 157.7 159.194L154.5 154.289C154.4 154.122 154.433 153.922 154.6 153.822C154.767 153.722 154.967 153.755 155.067 153.922L158.267 158.827C158.367 158.994 158.333 159.194 158.167 159.294C158.1 159.361 158.033 159.361 157.967 159.361Z" fill="#472938"/>
<path d="M160.1 124.16C160.1 124.16 148.633 186.12 175.567 192.56C202.5 199 212.1 141.21 211.4 129.198C210.7 117.186 164.1 113.549 160.1 124.16Z" fill="#FFEDE5"/>
<path d="M195.934 152.487C196.8 152.654 197.367 153.488 197.234 154.356L197.067 155.323C196.9 156.191 196.067 156.758 195.2 156.625C194.334 156.458 193.767 155.624 193.9 154.756L194.067 153.789C194.234 152.921 195.067 152.321 195.934 152.487Z" fill="#472938"/>
<path d="M170.833 149.685C171.733 149.685 172.433 150.385 172.433 151.286V152.254C172.433 153.121 171.733 153.855 170.833 153.855C169.967 153.855 169.233 153.155 169.233 152.254V151.286C169.233 150.385 169.933 149.685 170.833 149.685Z" fill="#472938"/>
<path d="M201.8 150.819C201.8 150.819 200.6 149.017 197.133 148.417C193.667 147.816 192.567 148.016 192.533 146.915C192.5 145.814 200.267 144.113 201.8 150.819Z" fill="#472938"/>
<path d="M165.8 146.248C165.8 146.248 167.533 144.947 171 145.514C174.467 146.114 175.433 146.648 175.833 145.614C176.233 144.58 169.467 140.409 165.8 146.248Z" fill="#472938"/>
<path d="M172.4 169.871L186.8 171.506C186.8 171.506 184.567 181.249 178.2 180.114C171.867 179.013 172.4 169.871 172.4 169.871Z" fill="white"/>
<path d="M181.933 167.469C180.933 167.469 179.833 167.202 178.833 166.735C178.667 166.668 178.6 166.468 178.667 166.301C178.733 166.134 178.933 166.067 179.1 166.134C180.567 166.835 182.2 167.002 183.3 166.568C183.767 166.401 184.067 166.134 184.2 165.834C184.633 164.799 184.467 161.596 184.267 157.893L184.2 156.591C183.833 149.751 187.933 148.45 188.1 148.383C188.267 148.317 188.467 148.417 188.5 148.617C188.567 148.784 188.467 148.984 188.267 149.017C188.1 149.051 184.5 150.252 184.833 156.558L184.9 157.859C185.1 161.796 185.3 164.933 184.767 166.101C184.567 166.568 184.133 166.968 183.5 167.202C183.1 167.402 182.533 167.469 181.933 167.469Z" fill="#472938"/>
<path d="M206.833 158.627C206.833 158.627 209 141.91 201.8 132.768C201.8 132.768 195.7 144.313 185.7 140.309C185.7 140.309 171.967 152.22 157.967 148.75C143.967 145.28 148.933 112.515 169.233 111.114C189.533 109.712 230.833 117.887 206.833 158.627Z" fill="#3B2645"/>
</g>
</svg>
