<svg width="375" height="406" viewBox="0 0 375 406" fill="none" xmlns="http://www.w3.org/2000/svg">
    <defs>
        <clipPath id="clip0_698_3951">
        <rect width="375" height="422" fill="white" transform="translate(0 -16)"/>
        </clipPath>
        </defs>
    <g clip-path="url(#clip0_698_3951)">
<path d="M167.6 130.828C167.6 130.828 170.067 114.037 188.967 114.037C207.867 114.037 217.033 135.516 221.3 148.118C225.567 160.719 236.567 172.589 250.9 179.605C265.233 186.62 276.067 194.168 274.233 210.061C274.233 210.061 304.9 234.001 246.467 238.423C188.033 242.845 159.333 206.171 162.867 187.285C166.4 168.4 143.6 142.798 167.6 130.828Z" fill="#3B2645"/>
<path d="M202.967 171.126C202.967 171.126 200.3 196.928 211.633 199.189C211.633 199.189 216.333 245.505 189.9 245.505C163.467 245.505 166.167 200.585 166.167 200.585C166.167 200.585 177.433 197.626 176.533 172.722C175.633 147.818 203.333 153.803 202.967 171.126Z" fill="#FFEDE5"/>
<path d="M195.1 173.42C197.333 164.942 185.833 163.213 178.1 162.98C177 165.474 176.367 168.699 176.5 172.722C176.667 176.247 176.5 179.804 176.067 183.329C180.467 183.661 192.4 183.628 195.1 173.42Z" fill="#E0855C"/>
<path d="M173.317 165.508C175.702 164.69 176.393 160.423 174.861 155.978C173.329 151.532 170.153 148.591 167.768 149.409C165.383 150.227 164.692 154.494 166.224 158.939C167.756 163.385 170.932 166.326 173.317 165.508Z" fill="#E0855C"/>
<path d="M213.017 158.9C214.549 154.454 213.857 150.187 211.472 149.369C209.087 148.551 205.911 151.492 204.379 155.938C202.847 160.384 203.539 164.651 205.924 165.468C208.309 166.286 211.484 163.345 213.017 158.9Z" fill="#E0855C"/>
<path d="M169.033 134.984C169.033 134.984 167.2 179.505 188.333 179.605C204.767 179.671 209.467 159.688 209.733 137.179C210 114.669 169.3 117.694 169.033 134.984Z" fill="#FFEDE5"/>
<path d="M190 166.571C186.467 166.571 183.367 164.443 183.333 164.41C183.167 164.31 183.133 164.111 183.267 163.944C183.367 163.778 183.567 163.745 183.733 163.878C183.8 163.911 189.8 168.001 194.233 164.51C194.367 164.41 194.6 164.41 194.7 164.576C194.8 164.742 194.8 164.942 194.633 165.042C193.133 166.172 191.533 166.571 190 166.571Z" fill="#472938"/>
<path d="M176.267 148.151C176.267 148.151 179.033 149.913 183.7 148.483C183.7 148.45 179.733 152.506 176.267 148.151Z" fill="#472938"/>
<path d="M202.8 148.517C202.8 148.517 200.033 150.279 195.367 148.849C195.367 148.849 199.333 152.906 202.8 148.517Z" fill="#472938"/>
<path d="M174.667 142.731C174.667 142.731 178.167 138.874 183.267 140.071C185.867 140.67 184.867 137.478 180.167 137.677C175.467 137.877 174.667 142.731 174.667 142.731Z" fill="#472938"/>
<path d="M204.667 142.731C204.667 142.731 201.167 138.874 196.067 140.071C193.467 140.67 194.467 137.478 199.167 137.677C203.867 137.877 204.667 142.731 204.667 142.731Z" fill="#472938"/>
<path d="M189.2 159.123C188.2 159.123 186.067 158.392 185.333 157.66C185.067 157.394 184.967 157.128 185 156.862C185.067 156.463 185.367 155.2 185.8 153.604C186.367 151.31 187.1 148.483 187.333 147.087C187.567 145.757 187.333 144.36 186.7 143.163C186.6 142.997 186.667 142.798 186.833 142.698C187 142.598 187.2 142.665 187.3 142.831C188 144.161 188.267 145.69 188 147.187C187.767 148.616 187.033 151.476 186.467 153.77C186.067 155.299 185.733 156.629 185.7 156.962C185.7 156.995 185.733 157.062 185.833 157.195C186.533 157.893 188.733 158.558 189.367 158.458C190.2 158.325 191.933 157.527 192.533 156.829C192.667 156.696 192.867 156.696 193 156.796C193.133 156.929 193.133 157.128 193.033 157.261C192.3 158.059 190.433 158.957 189.467 159.09C189.333 159.123 189.267 159.123 189.2 159.123Z" fill="#472938"/>
<path d="M169.333 146.389C169.333 146.389 170.667 135.782 173.967 131.892C173.967 131.892 179.5 129.431 188.3 134.652C197.1 139.872 203.267 144.261 211.433 142.964C211.433 142.964 212.2 117.661 191.1 119.024C170 120.388 165.667 131.393 169.333 146.389Z" fill="#3B2645"/>
<path d="M308.767 302.727C308.433 302.195 307.433 303.093 307.433 303.093C307.433 303.093 306.4 301.929 303.6 302.761C300.8 303.592 292.5 310.707 292.5 310.707C288.767 310.641 282.667 314.298 282.667 314.298C282.667 314.298 278.067 312.403 273.9 306.152C269.733 299.901 265.2 296.842 265.2 296.842C265.2 296.842 255.433 257.674 248.833 233.236C242.133 236.062 233.433 247.201 227.233 256.178C227.367 260.401 227.5 263.094 227.5 263.094C227.5 263.094 249.233 320.616 252.033 322.344C254.833 324.073 286.8 327.93 287.133 327.698C287.467 327.465 290.4 328.23 291.6 327.698C292.8 327.166 294.267 328.03 295.733 327.033C297.2 326.035 299.733 327.565 300.767 326.6C301.8 325.636 303.6 326.035 304.8 325.47C306 324.905 312.7 315.462 312.833 313.766C312.967 312.07 309.1 303.259 308.767 302.727Z" fill="#FFEDE5"/>
<path d="M232.833 244.707C232.833 244.707 244.2 264.058 235.2 283.11L227.467 263.028L232.833 244.707Z" fill="#E0855C"/>
<path d="M248.8 233.17C246.433 224.392 244.467 217.509 243.5 215.015C239.833 205.44 233.067 205.007 233.067 205.007C226.4 205.107 226.733 240.75 227.2 256.112C233.4 247.134 242.1 236.029 248.8 233.17Z" fill="#AB8DA8"/>
<path d="M257.8 298.87C257.667 298.87 257.533 298.771 257.467 298.638C257.433 298.471 257.533 298.272 257.7 298.239L264.233 296.51C264.4 296.476 264.6 296.576 264.633 296.742C264.667 296.909 264.567 297.108 264.4 297.141L257.867 298.87C257.867 298.87 257.833 298.87 257.8 298.87Z" fill="#472938"/>
<path d="M290.133 321.513C289.967 321.513 289.8 321.38 289.8 321.181C289.633 317.124 284.833 316.958 284.633 316.958C284.433 316.958 284.3 316.792 284.3 316.626C284.3 316.426 284.467 316.293 284.633 316.293C284.7 316.293 290.233 316.493 290.433 321.147C290.5 321.347 290.333 321.513 290.133 321.513C290.167 321.513 290.167 321.513 290.133 321.513Z" fill="#472938"/>
<path d="M288.667 324.539C288.633 324.539 288.567 324.539 288.533 324.506C288.367 324.439 288.3 324.24 288.367 324.073C288.767 323.209 292.367 315.429 293.867 314.431C295.1 313.6 296.6 313.866 297.2 314.398C297.6 314.73 297.467 315.063 297.433 315.163C297.267 315.528 295.333 320.316 294.367 322.777C294.3 322.943 294.1 323.043 293.933 322.976C293.767 322.91 293.667 322.71 293.733 322.544C293.833 322.245 296.433 315.794 296.8 314.963C296.733 314.897 296.567 314.764 296.233 314.697C295.967 314.631 295.1 314.464 294.233 315.03C293.1 315.794 290.033 322.045 288.933 324.406C288.9 324.472 288.8 324.539 288.667 324.539Z" fill="#472938"/>
<path d="M299.2 322.045C299 322.045 298.867 321.912 298.867 321.713C298.867 321.646 298.867 321.646 299.8 318.355C300.567 315.661 301.8 311.272 301.933 310.574C301.733 310.375 300.8 309.976 300.167 310.175C299.667 310.341 298.133 312.602 297 314.597C296.9 314.764 296.7 314.797 296.533 314.73C296.367 314.631 296.333 314.431 296.4 314.265C297 313.234 299 309.843 299.933 309.51C300.733 309.244 301.767 309.61 302.233 309.942C302.467 310.109 302.6 310.308 302.6 310.474C302.6 310.674 302.133 312.37 300.433 318.488C300 320.05 299.567 321.547 299.533 321.713C299.533 321.912 299.367 322.045 299.2 322.045Z" fill="#472938"/>
<path d="M303.9 321.347C303.867 321.347 303.867 321.347 303.833 321.347C303.667 321.314 303.533 321.114 303.567 320.948C304.733 315.761 306.433 307.848 306.467 306.983C306.333 306.784 305.733 306.451 304.7 306.451C304.133 306.451 302.7 308.346 301.733 310.109C301.633 310.275 301.433 310.341 301.267 310.242C301.1 310.142 301.033 309.942 301.133 309.776C301.667 308.845 303.467 305.786 304.7 305.786C305.867 305.786 306.833 306.185 307.1 306.75C307.167 306.883 307.333 307.249 304.2 321.081C304.2 321.247 304.067 321.347 303.9 321.347Z" fill="#472938"/>
<path d="M306.4 306.784C306.267 306.784 306.133 306.684 306.067 306.551C305.533 304.855 307.1 302.96 307.167 302.894C307.3 302.761 307.5 302.727 307.633 302.86C307.767 302.993 307.8 303.193 307.667 303.326C307.667 303.359 306.267 305.022 306.7 306.385C306.767 306.551 306.667 306.75 306.467 306.817C306.467 306.784 306.433 306.784 306.4 306.784Z" fill="#472938"/>
<path d="M304.633 318.122C304.567 318.122 304.5 318.089 304.467 318.055C304.3 317.956 304.267 317.756 304.367 317.59L307.1 313.467L306.3 308.48C306.267 308.313 306.4 308.114 306.567 308.114C306.733 308.081 306.933 308.214 306.933 308.38L307.8 313.633L304.933 317.989C304.833 318.055 304.733 318.122 304.633 318.122Z" fill="#472938"/>
<path d="M73.4667 308.28C73.7667 307.748 74.8 308.579 74.8 308.579C74.8 308.579 75.8 307.382 78.6334 308.114C81.4667 308.845 90.0334 315.595 90.0334 315.595C93.7334 315.395 100.033 318.787 100.033 318.787C100.033 318.787 104.567 316.692 108.5 310.275C112.433 303.858 116.833 300.599 116.833 300.599C116.833 300.599 125 261.099 130.633 236.362C137.433 238.922 146.567 249.695 153.133 258.406C153.167 262.629 153.167 265.322 153.167 265.322C153.167 265.322 133.767 323.641 131.033 325.503C128.3 327.365 96.5 332.452 96.2 332.253C95.9 332.053 92.9667 332.918 91.7334 332.419C90.5001 331.92 89.1001 332.885 87.5667 331.92C86.0334 330.956 83.6 332.585 82.5 331.688C81.4 330.79 79.6667 331.222 78.4 330.723C77.1334 330.225 70.1 321.048 69.9 319.352C69.7 317.656 73.1667 308.812 73.4667 308.28Z" fill="#FFEDE5"/>
<path d="M147.033 247.301C147.033 247.301 136.467 267.117 146.2 285.77L153.1 265.388L147.033 247.301Z" fill="#E0855C"/>
<path d="M130.6 236.395C132.6 227.55 134.3 220.601 135.167 218.041C138.433 208.332 145.2 207.601 145.2 207.601C151.867 207.435 152.933 243.078 153.1 258.439C146.533 249.761 137.4 238.988 130.6 236.395Z" fill="#AB8DA8"/>
<path d="M124.233 302.395C124.2 302.395 124.2 302.395 124.167 302.395L117.567 300.932C117.4 300.899 117.267 300.699 117.3 300.533C117.333 300.367 117.533 300.234 117.7 300.267L124.3 301.73C124.467 301.763 124.6 301.963 124.567 302.129C124.533 302.295 124.367 302.395 124.233 302.395Z" fill="#472938"/>
<path d="M92.8 326.301C92.6 326.301 92.4667 326.135 92.4667 325.969C92.5 321.28 98 320.882 98.0667 320.882C98.2333 320.882 98.4 321.015 98.4333 321.181C98.4333 321.38 98.3 321.513 98.1333 321.546C97.9333 321.546 93.1667 321.912 93.1667 325.969C93.1333 326.168 93 326.301 92.8 326.301Z" fill="#472938"/>
<path d="M94.4334 329.26C94.3001 329.26 94.2001 329.194 94.1334 329.094C92.9667 326.8 89.6334 320.649 88.4667 319.917C87.5667 319.385 86.7001 319.585 86.4334 319.651C86.1334 319.751 85.9667 319.884 85.9001 319.951C86.3001 320.782 89.1334 327.132 89.2667 327.432C89.3334 327.598 89.2667 327.797 89.1001 327.864C88.9334 327.93 88.7334 327.864 88.6667 327.698C87.5667 325.27 85.4667 320.549 85.3001 320.183C85.1667 319.951 85.2667 319.651 85.5001 319.419C86.0667 318.887 87.5667 318.554 88.8334 319.319C90.4001 320.25 94.3001 327.897 94.7334 328.762C94.8001 328.928 94.7667 329.127 94.6001 329.194C94.5334 329.26 94.4667 329.26 94.4334 329.26Z" fill="#472938"/>
<path d="M83.7667 327.166C83.6 327.166 83.4667 327.066 83.4333 326.9C83.4 326.733 82.9667 325.403 82.4667 323.841C80.4667 317.69 79.9333 315.961 79.9333 315.761C79.9333 315.562 80.0333 315.395 80.2667 315.229C80.7333 314.863 81.7333 314.464 82.5667 314.697C83.5333 314.963 85.6667 318.288 86.3 319.286C86.4 319.452 86.3333 319.651 86.2 319.751C86.0333 319.851 85.8334 319.784 85.7334 319.651C84.5 317.69 82.8667 315.495 82.4 315.362C81.7333 315.163 80.8333 315.628 80.6333 315.828C80.8 316.426 82.2333 320.948 83.1333 323.674C84.1333 326.767 84.1333 326.767 84.1333 326.833C84.1333 326.999 83.9667 327.166 83.7667 327.166C83.8 327.166 83.8 327.166 83.7667 327.166Z" fill="#472938"/>
<path d="M79.0667 326.7C78.9333 326.7 78.8 326.6 78.7333 326.467C75.0667 312.735 75.2333 312.37 75.2667 312.237C75.5 311.638 76.4333 311.206 77.6333 311.173H77.6667C78.9 311.173 80.8 314.132 81.3667 315.03C81.4667 315.196 81.4 315.395 81.2667 315.495C81.1 315.595 80.9 315.528 80.8 315.395C79.7667 313.7 78.2667 311.838 77.7 311.838C76.7 311.871 76.1 312.237 75.9667 312.436C76.0333 313.301 78.0667 321.148 79.4333 326.268C79.4667 326.434 79.3667 326.634 79.2 326.667C79.1 326.667 79.0667 326.7 79.0667 326.7Z" fill="#472938"/>
<path d="M76 312.27C75.9667 312.27 75.9334 312.27 75.9 312.27C75.7334 312.237 75.6 312.037 75.6667 311.871C76.0334 310.474 74.6 308.878 74.5667 308.845C74.4334 308.712 74.4667 308.513 74.6 308.38C74.7334 308.247 74.9334 308.28 75.0667 308.413C75.1334 308.479 76.7667 310.308 76.3 312.037C76.2667 312.17 76.1334 312.27 76 312.27Z" fill="#472938"/>
<path d="M78.2 323.475C78.1 323.475 78 323.442 77.9334 323.342L74.9 319.119L75.5334 313.833C75.5667 313.666 75.7334 313.533 75.9 313.533C76.0667 313.567 76.2 313.733 76.2 313.899L75.6 318.92L78.5 322.943C78.6 323.076 78.5667 323.309 78.4334 323.408C78.3334 323.475 78.2667 323.475 78.2 323.475Z" fill="#472938"/>
<path d="M211.6 199.189L233.067 205.007C233.067 205.007 230.467 239.62 234.9 246.769C239.333 253.917 236.867 270.176 231.5 278.256C231.5 278.256 222.9 305.853 225.233 312.336C227.567 318.82 235.4 333.151 235.4 333.151C235.4 333.151 200.433 350.839 149.833 335.112C149.833 335.112 159.867 314.032 158.3 305.953C156.733 297.873 145.9 275.363 146.033 264.723C146.167 254.083 149.567 225.688 144.6 207.734L166.067 200.585C166.067 200.585 166.433 242.745 190.867 242.745C215.3 242.745 211.6 199.189 211.6 199.189Z" fill="#AB8DA8"/>
<path d="M231.533 278.256C231.533 278.256 228.867 283.576 211.933 285.803C211.933 285.803 228.233 287.034 226.6 296.809L231.533 278.256Z" fill="#543753"/>
<path d="M148.367 276.76C148.367 276.76 152.367 284.241 170.467 285.936C170.467 285.936 150.633 282.944 154.333 293.783L148.367 276.76Z" fill="#543753"/>
<path d="M146.133 266.585C145.967 266.585 145.8 266.452 145.8 266.286C145.767 265.721 145.733 265.222 145.767 264.723C145.8 262.329 146 259.071 146.2 255.28C146.5 250.093 146.867 243.643 146.967 237.026C146.967 236.827 147.1 236.694 147.3 236.694C147.5 236.694 147.633 236.86 147.633 237.026C147.533 243.643 147.167 250.127 146.867 255.314C146.633 259.104 146.467 262.363 146.433 264.756C146.433 265.222 146.433 265.721 146.467 266.253C146.467 266.386 146.333 266.552 146.133 266.585Z" fill="#472938"/>
<path d="M234.9 247.101C234.8 247.101 234.667 247.035 234.6 246.935C233.133 244.574 232.267 239.154 232.033 230.842C232.033 230.643 232.167 230.51 232.367 230.51C232.533 230.51 232.7 230.643 232.7 230.842C232.933 239.055 233.767 244.375 235.167 246.602C235.267 246.769 235.2 246.968 235.067 247.068C235.033 247.068 234.967 247.101 234.9 247.101Z" fill="#472938"/>
<path d="M151 332.652C151 332.652 169.833 339.8 191.867 339.036C213.9 338.271 258 322.378 278.6 325.636C299.2 328.895 297.867 337.639 297.167 341.662C296.467 345.686 253.7 406.033 216.133 406.033H158.567C158.567 406.033 87.8334 361.579 85.5334 348.744C83.2334 335.91 84.9001 328.23 104.633 327.864C124.367 327.498 145.7 330.923 151 332.652Z" fill="#3B2645"/>
<path d="M191.133 352.236C191.133 352.236 219.267 340.565 242.767 336.542C242.767 336.542 257.9 359.95 253.467 379.733C253.433 379.733 199.633 367.963 191.133 352.236Z" fill="#FFEDE5"/>
<path d="M191.133 352.236C191.133 352.236 259.2 361.113 253.433 379.733C247.667 398.353 191.133 352.236 191.133 352.236Z" fill="#E0855C"/>
<path d="M221.733 385.917C221.733 385.917 151.967 391.902 136.667 395.028C121.367 398.153 105.867 396.757 96.4 400.048C86.9334 403.34 81.7 405.867 80.5667 406C79.4333 406.133 76.8333 391.47 81.6 386.283C81.6 386.283 80.1333 380.996 86.8 376.907C93.4667 372.817 104.533 378.204 108.633 376.907C112.733 375.61 115.667 374.413 120.033 375.344C124.4 376.275 135.067 378.902 135.067 378.902C135.067 378.902 190 344.09 221.733 385.917Z" fill="#FFEDE5"/>
<path d="M135.1 378.902L176.533 390.14L221.733 385.917C221.733 385.917 201.133 364.771 172.7 366.733C144.267 368.694 135.1 378.902 135.1 378.902Z" fill="#E0855C"/>
<path d="M149.533 337.107C149.533 337.107 170.933 341.43 201.867 357.589C232.8 373.748 258.4 367.131 267.433 370.257C276.467 373.382 293.6 370.955 296.4 373.382C299.2 375.81 301.033 380.065 299.367 381.894C299.367 381.894 306.833 398.984 306.133 400.115C305.433 401.245 302.833 401.146 301.6 400.88C300.367 400.614 289.5 395.227 277 393C264.5 390.772 230.033 385.984 202.567 384.587C175.1 383.191 135.1 380.431 135.1 380.431C135.1 380.431 136.033 346.816 149.533 337.107Z" fill="#FFEDE5"/>
<path d="M297.1 382.592C296.033 382.592 294.6 382.393 292.767 381.761C292.6 381.695 292.5 381.495 292.567 381.329C292.633 381.163 292.833 381.063 293 381.129C297.133 382.592 299.133 381.595 299.167 381.595C299.333 381.495 299.533 381.562 299.6 381.728C299.7 381.894 299.633 382.094 299.467 382.16C299.433 382.16 298.667 382.592 297.1 382.592Z" fill="#472938"/>
<path d="M84.9667 387.314C82.6333 387.314 81.5 386.582 81.4334 386.549C81.2667 386.449 81.2333 386.25 81.3333 386.084C81.4333 385.917 81.6333 385.884 81.8 385.984C81.8 385.984 83 386.715 85.3334 386.616C87.7667 386.549 90.4 385.352 90.4334 385.352C90.6 385.286 90.8 385.352 90.8667 385.518C90.9334 385.685 90.8667 385.884 90.7 385.951C90.6 386.017 87.9 387.181 85.3667 387.281C85.2334 387.314 85.1 387.314 84.9667 387.314Z" fill="#472938"/>
</g>
</svg>
