<svg width="269" height="295" viewBox="0 0 269 295" fill="none" xmlns="http://www.w3.org/2000/svg">
<path d="M102.567 82.0965L85.3665 87.1021C85.3665 87.1021 80.1332 105.486 81.7665 108.763C83.3999 112.039 92.5999 114.527 96.9665 112.555C101.333 110.583 116.133 97.6898 116.133 97.6898L102.567 82.0965Z" fill="#FFEDE5"/>
<path d="M118.333 64.3492C118.333 64.3492 107.333 75.6953 102.566 82.0964L114.833 99.5403L127.666 89.0437C127.666 89.0437 125.533 60.011 118.333 64.3492Z" fill="#543753"/>
<path d="M100.6 82.6729V100.147L106.133 87.1628L102.567 82.0965L100.6 82.6729Z" fill="#E0855C"/>
<path d="M99.7667 72.5402C101.267 72.874 101.733 71.9335 102.967 73.7234C104.2 75.5133 106.8 82.5212 106.1 83.583C105.4 84.6448 97.6333 91.4707 97.0667 91.4707C96.5 91.4707 95.0667 89.5594 95.3667 88.892C95.3667 88.892 93.5333 89.8931 92.3333 89.7111C92.3333 89.7111 89.6667 90.9853 88.6 90.7426C87.5333 90.4999 81.3 82.1268 82.7667 79.9122C84.2333 77.6976 85.1667 78.8504 86.0333 77.9706C86.9 77.0908 88.3667 75.6346 90.1333 75.7863C91.9 75.938 92.7 73.4504 95.2667 73.8144C97.8333 74.1785 96.4333 71.7818 99.7667 72.5402Z" fill="#FFEDE5"/>
<path d="M95.3333 89.1954C95.2 89.1954 95.1 89.1347 95.0333 89.0437C94.9333 88.892 95 88.7099 95.1666 88.6493C95.2 88.6493 98.2 87.1931 99 86.1313L99.0666 86.0706C99.1 86.0706 100.8 84.6751 101.367 83.6133L98.4666 77.6369C98.4 77.4852 98.4666 77.3032 98.6333 77.2425C98.8 77.1818 99 77.2425 99.0666 77.3942L102.067 83.6133L102 83.7347C101.5 84.8875 99.7666 86.3133 99.5 86.5257C98.5666 87.7088 95.5666 89.1347 95.4333 89.1954C95.4333 89.165 95.4 89.1954 95.3333 89.1954Z" fill="#472938"/>
<path d="M92.2997 90.0145C92.1664 90.0145 92.0664 89.9538 91.9997 89.8324L88.2997 82.9762C88.2331 82.8246 88.2997 82.6425 88.4664 82.5818C88.6331 82.5212 88.8331 82.5818 88.8997 82.7335L92.5997 89.5897C92.6664 89.7414 92.5997 89.9235 92.4331 89.9841C92.3997 90.0145 92.3664 90.0145 92.2997 90.0145Z" fill="#472938"/>
<path d="M97.2998 88.1335C97.1665 88.1335 97.0665 88.0729 96.9998 87.9515L93.5331 81.156C93.4664 81.0043 93.5331 80.8223 93.6998 80.7616C93.8664 80.7009 94.0664 80.7616 94.1331 80.9133L97.5998 87.7088C97.6665 87.8605 97.5998 88.0425 97.4331 88.1032C97.3998 88.1335 97.3331 88.1335 97.2998 88.1335Z" fill="#472938"/>
<path d="M97.0333 91.7741C96.5 91.7741 95.9 91.0156 95.6667 90.7123C95.5 90.4999 95.1333 89.9538 95 89.4077C94.3667 89.6808 93.2667 90.1055 92.3667 90.0448C91.8333 90.2875 89.5667 91.2887 88.5 91.046C87.9 90.9246 86.8 89.5898 86.2 88.801C86.1 88.6493 86.1333 88.4673 86.2667 88.3763C86.4 88.2853 86.6333 88.3156 86.7333 88.437C87.7667 89.8021 88.4667 90.3785 88.6333 90.4392C89.3333 90.5909 91.1333 89.8932 92.1333 89.4381L92.2333 89.4077H92.3333C93.4333 89.5594 95.1333 88.619 95.1667 88.619L96.0333 88.1639L95.6667 89.0134C95.6333 89.1044 95.6333 89.4078 95.9667 89.9842C96.3667 90.6516 96.8333 91.0763 97.0333 91.1673C97.8667 90.7426 103.3 86.0707 105.233 84.1898C103.433 84.5841 101.7 83.8864 101.633 83.856C101.467 83.7954 101.4 83.6133 101.467 83.4616C101.533 83.31 101.733 83.2493 101.9 83.31C101.933 83.31 104.1 84.1897 105.933 83.31C106.167 83.1886 106.333 83.2493 106.4 83.3403C106.5 83.401 106.567 83.5527 106.5 83.7043C106.267 84.2504 97.8333 91.7741 97.0333 91.7741Z" fill="#472938"/>
<path d="M156.033 46.1165L172.733 55.6727V75.483C172.733 75.483 155.366 108.369 156.033 120.23L116.266 126.996C116.266 126.996 106.733 92.1684 118.333 64.3189L136.066 52.9727L156.033 46.1165Z" fill="#AB8DA8"/>
<path d="M112.6 99.0246C112.433 99.0246 112.267 98.9033 112.267 98.7212C112.133 90.3178 112.867 82.4908 114.5 75.3919C114.533 75.2402 114.7 75.1189 114.9 75.1492C115.067 75.1795 115.2 75.3312 115.167 75.5133C113.567 82.5515 112.8 90.3482 112.967 98.6909C112.933 98.8729 112.8 99.0246 112.6 99.0246Z" fill="#472938"/>
<path d="M172.733 75.5133L159.7 73.7234L167 87.1628L172.733 75.5133Z" fill="#543753"/>
<path d="M151.7 33.9513L156.033 46.1165C151.4 47.7547 147.233 50.303 143.833 53.6098C138.133 59.1312 135.933 64.3492 132.5 64.3492C129.067 64.3492 136.1 53.0031 136.1 53.0031L135.2 42.385L151.7 33.9513Z" fill="#FFEDE5"/>
<path d="M135.633 47.7851C135.633 47.7851 143.267 46.7536 147.167 36.7726L135.167 42.385L135.633 47.7851Z" fill="#E0855C"/>
<path d="M129.967 9.10509C129.967 9.10509 122.6 41.8086 126.433 44.0536C130.267 46.2985 145.4 44.357 151.033 35.2558C156.667 26.1546 149.6 9.10509 129.967 9.10509Z" fill="#FFEDE5"/>
<path d="M127.6 20.7243C127.6 20.7243 120.667 28.885 121.367 29.6737C122.067 30.4625 125.867 31.585 125.867 31.585L127.6 20.7243Z" fill="#FFEDE5"/>
<path d="M148.4 30.3108C148.4 30.3108 144.933 28.7333 147.167 21.8467C147.167 21.8467 142.667 14.5961 139.733 13.413C136.8 12.2298 129.333 11.8658 129.333 11.8658C129.333 11.8658 127.833 2.30957 130.333 1.30844C132.833 0.30731 155.967 0.88371 160.333 8.31633C161.8 10.8343 160.867 12.3512 160.867 12.3512C160.867 12.3512 163.333 15.3242 162.9 17.8726C162.467 20.4209 155.667 29.8558 155.667 29.8558L148.4 30.3108Z" fill="#3B2645"/>
<path d="M155.318 32.7977C157.636 30.6889 158.29 27.8652 156.78 26.4909C155.27 25.1166 152.167 25.7121 149.85 27.8209C147.533 29.9298 146.879 32.7534 148.389 34.1277C149.899 35.502 153.001 34.9065 155.318 32.7977Z" fill="#FFEDE5"/>
<path d="M129.366 36.8333C127.8 36.8333 126.4 36.4389 126.3 36.4086C126.133 36.3479 126.033 36.1963 126.1 36.0142C126.166 35.8625 126.333 35.7715 126.533 35.8322C126.566 35.8322 131.1 37.1671 132.666 34.9828C132.766 34.8311 132.966 34.8007 133.133 34.8917C133.3 34.9828 133.333 35.1648 133.233 35.3165C132.333 36.4996 130.8 36.8333 129.366 36.8333Z" fill="#472938"/>
<path d="M150.167 31.7063C150.067 31.7063 149.933 31.6457 149.9 31.5547C149.8 31.403 149.833 31.2209 150 31.1299L152.7 29.5827C152.867 29.4917 153.067 29.522 153.167 29.6737C153.267 29.8254 153.233 30.0074 153.067 30.0984L150.367 31.6457C150.3 31.676 150.233 31.7063 150.167 31.7063Z" fill="#472938"/>
<path d="M132.2 20.7546C132.9 20.9063 133.333 21.5434 133.167 22.1501L132.967 22.9692C132.8 23.6063 132.1 24.0007 131.433 23.849C130.733 23.6973 130.3 23.0602 130.467 22.4535L130.667 21.6344C130.833 20.9973 131.5 20.6029 132.2 20.7546Z" fill="#3B2645"/>
<path d="M130.8 17.5692C130.8 17.5692 135.2 17.2961 136.333 20.5726C136.333 20.5726 136.2 17.1444 133.433 16.6287C130.667 16.113 129.767 17.4175 130.8 17.5692Z" fill="#3B2645"/>
<path d="M161.967 49.5143C147 47.2086 156.933 75.938 156.933 75.938L179.333 82.0965L187.633 58.8885C174.6 53.6705 161.967 49.5143 161.967 49.5143Z" fill="#AB8DA8"/>
<path d="M182.833 117.409C182.833 117.409 174.933 119.927 174.167 121.049C173.4 122.172 174.133 126.146 174.133 126.146C173.3 127.36 172.633 128.634 172.167 129.999C171.5 132.032 173.167 131.425 175.133 133.488C177.1 135.551 178.7 135.035 179.833 135.975C180.967 136.916 183.267 136.612 184.167 137.007C185.067 137.401 186.767 138.736 187.8 138.675C188.833 138.615 191.267 135.399 193.267 131.364C195.267 127.329 194.9 124.053 195.8 119.199C196.7 114.345 217.733 83.1279 215.267 74.6638C214.033 70.447 200.633 64.1368 187.6 58.8885L179.3 82.0965L191.167 85.3729L182.833 117.409Z" fill="#FFEDE5"/>
<path d="M194.733 86.5257C194.7 86.5257 194.667 86.5257 194.633 86.5257L191.067 85.6459C190.9 85.6156 190.767 85.4336 190.833 85.2819C190.867 85.1302 191.067 85.0392 191.233 85.0695L194.8 85.9493C194.967 85.9796 195.1 86.1617 195.033 86.3133C195.033 86.4347 194.9 86.5257 194.733 86.5257Z" fill="#472938"/>
<path d="M221.833 195.224L234.8 189.308C234.8 189.308 234.5 187.003 237.1 184.394C239.7 181.785 237.767 175.747 235.333 174.777C232.9 173.806 231.7 174.473 229.6 171.349L210.833 178.751L221.833 195.224Z" fill="#FFEDE5"/>
<path d="M235.3 174.777C237.733 175.747 239.633 181.785 237.067 184.394C234.5 187.003 234.767 189.308 234.767 189.308C245.867 190.673 256.3 205.478 258.267 207.147C260.233 208.815 268.2 207.632 268.433 206.388C268.667 205.144 251.367 163.613 249.767 162.702C248.167 161.792 229.567 171.349 229.567 171.349C231.667 174.473 232.867 173.806 235.3 174.777Z" fill="#AB8DA8"/>
<path d="M268.433 206.388C268.633 205.144 251.367 163.613 249.767 162.703C249.367 162.46 247.9 162.885 245.967 163.643C250.567 171.955 262.3 200.594 265.2 207.693C266.933 207.389 268.333 206.904 268.433 206.388Z" fill="#E5E5E5"/>
<path d="M121.867 151.356C121.867 151.356 151.6 222.345 164.133 223.286C176.667 224.226 227.533 193.131 227.533 193.131L218.067 175.869L175.1 188.762L164.4 144.197L121.867 151.356Z" fill="#3B2645"/>
<g opacity="0.5">
<path opacity="0.5" d="M164.4 144.227L121.867 151.356C121.867 151.356 129.5 169.559 138.633 187.64L167.933 159.092L164.4 144.227Z" fill="#3B2645"/>
</g>
<path d="M43.7333 253.745L38 265.849C38 265.849 39.8667 267.457 39.7333 270.946C39.6 274.434 45.3333 277.954 47.9 277.256C50.4667 276.558 50.9 275.345 54.7334 276.528L63.8667 259.842L43.7333 253.745Z" fill="#FFEDE5"/>
<path d="M41.7332 257.961C41.7332 257.961 49.5998 265.455 59.8998 267.032L63.8331 259.842L43.7332 253.714L41.7332 257.961Z" fill="#E0855C"/>
<path d="M156.033 120.261C156.033 120.261 173.433 138.615 164.367 153.177C155.3 167.738 101.267 194.496 97.5999 202.717C93.9332 210.939 91.8666 220.434 84.3666 231.841C76.8666 243.248 64.8999 263.361 64.8999 263.361C64.8999 263.361 46.7999 262.724 40.8999 255.595C40.8999 255.595 70.0999 188.337 77.0666 179.631C84.0332 170.924 116.9 134.034 116.9 134.034L116.233 127.026L156.033 120.261Z" fill="#3B2645"/>
<path d="M56.6666 260.965C56.6332 260.965 56.6332 260.965 56.5999 260.965C56.5332 260.934 56.4666 260.843 56.5332 260.752C56.8666 260.115 89.0332 197.742 95.4666 190.461C97.8332 187.761 104.8 181.421 112.833 174.079C126.6 161.519 143.7 145.896 146 141.102C149.6 133.639 147.2 123.143 147.167 123.021C147.133 122.93 147.2 122.87 147.3 122.839C147.4 122.809 147.467 122.87 147.5 122.961C147.533 123.052 149.933 133.67 146.3 141.224C143.967 146.047 126.833 161.701 113.067 174.291C105.033 181.633 98.0999 187.943 95.7333 190.643C89.3332 197.894 57.1666 260.237 56.8666 260.874C56.7999 260.934 56.7332 260.965 56.6666 260.965Z" fill="white"/>
<path d="M52.0999 260.024C52.0666 260.024 52.0666 260.024 52.0332 260.024C51.9666 259.994 51.8999 259.903 51.9666 259.812C52.2999 259.175 85.6666 194.921 89.5332 189.521C91.4999 186.76 103.233 175.474 114.567 164.583C125.767 153.814 137.367 142.65 139.6 139.676C144.067 133.73 143.133 124.083 143.133 123.992C143.133 123.901 143.2 123.84 143.3 123.84C143.4 123.84 143.467 123.901 143.467 123.992C143.467 124.083 144.433 133.852 139.867 139.889C137.6 142.892 126 154.056 114.8 164.856C103.467 175.747 91.7666 187.033 89.7999 189.763C85.9666 195.163 52.5666 259.387 52.2333 260.024C52.2333 259.994 52.1666 260.024 52.0999 260.024Z" fill="white"/>
<path d="M47.8666 277.286C45.3333 277.954 39.5666 274.465 39.7 270.976C39.8333 267.487 37.9666 265.879 37.9666 265.879C28.4999 271.34 10.0666 266.122 7.36662 266.001C4.66662 265.879 -0.600051 271.461 0.133283 272.523C0.866616 273.585 43.4333 295.246 45.3333 295.033C47.2333 294.821 54.6666 276.588 54.6666 276.588C50.8666 275.375 50.4333 276.619 47.8666 277.286Z" fill="#AB8DA8"/>
<path d="M0.166523 272.523C0.866523 273.585 43.4665 295.246 45.3665 295.033C45.8332 294.973 46.6665 293.82 47.5998 292.091C38.1999 288.42 8.93319 273.373 1.73319 269.641C0.599855 270.855 -0.133477 272.068 0.166523 272.523Z" fill="#E5E5E5"/>
<g opacity="0.5">
<path opacity="0.5" d="M116.9 134.034C116.9 134.034 136.667 131.789 136.467 131.849C136.267 131.91 116.633 131.061 116.633 131.061L116.9 134.034Z" fill="#3B2645"/>
</g>
</svg>
