<svg width="375" height="390" viewBox="0 0 375 390" fill="none" xmlns="http://www.w3.org/2000/svg">
<defs>
<linearGradient id="paint0_linear_698_3703" x1="375" y1="389.866" x2="-125.641" y2="357.062" gradientUnits="userSpaceOnUse">
<stop stop-color="#92A3FD"/>
<stop offset="0.5" stop-color="#93A6FD"/>
<stop offset="1" stop-color="#9DCEFF"/>
</linearGradient>
</defs>
<path d="M375 220.901C375 220.901 302.933 383.894 191.1 389.5C79.2667 395.105 0 334.512 0 334.512V-53H375V220.901Z" fill="url(#paint0_linear_698_3703)"/>
<path d="M141.3 300.412C121.1 351.229 126.867 385.562 126.867 385.562C146.033 389.066 165.5 390.5 184.967 389.867C209.633 389.066 232.433 381.392 253.1 369.747C253.8 341.519 244.167 316.328 237.3 302.014C193.133 323.402 154.6 307.419 141.3 300.412Z" fill="#AB8DA8"/>
<path d="M147.233 286.732C145.067 291.404 143.067 295.975 141.333 300.412C154.6 307.419 193.167 323.435 237.3 302.014C233.533 294.173 230.567 289.602 230.567 289.602C230.567 289.602 174.4 228.475 147.233 286.732Z" fill="#FEF9EF"/>
<path d="M191.1 389.499V371.916L206.367 361.305L196.267 375.419L197.3 388.999L191.1 389.499Z" fill="#543753"/>
<path d="M118.533 176.625C118.533 176.625 117 177.192 116.733 192.74C116.467 208.289 115.3 239.219 115.3 239.219C115.3 239.219 101.2 226.106 100.167 219.5C99.1332 212.893 99.5666 206.954 98.8666 203.317C98.1666 199.681 98.0332 189.737 98.3332 187.869C98.6332 186.001 93.8999 185.7 92.5999 188.47C91.2999 191.239 90.8666 200.448 90.1999 200.782C89.5332 201.115 81.8999 201.816 81.1665 203.484C80.4332 205.153 81.7332 208.189 80.5999 210.725C79.4665 213.26 80.6999 215.062 80.5999 216.997C80.4999 218.933 80.0332 219.667 80.8999 222.603C81.7665 225.539 81.9332 228.008 83.3332 228.475L84.7332 228.942L89.6332 230.611C89.6332 230.611 110.633 277.957 121.033 278.991C131.433 280.026 136.867 271.751 138.167 265.078C139.467 258.405 146.433 218.432 146.433 218.432L118.533 176.625Z" fill="#FFEDE5"/>
<path d="M130.333 209.523L141.867 244.591L146.433 218.399L130.333 209.523Z" fill="#E0855C"/>
<path d="M115.3 239.186C115.3 239.186 125.1 247.427 128.333 254.2C128.333 254.2 123.1 240.32 115.5 233.881L115.3 239.186Z" fill="#E0855C"/>
<path d="M86.3665 228.275C86.3665 228.275 96.5998 228.008 97.4331 227.374C98.2664 226.74 98.2998 223.737 97.8664 223.37C97.8664 223.37 98.6998 218.999 97.9331 217.865C97.9331 217.865 98.2331 214.628 97.8998 212.727C97.8998 212.727 99.5998 222.469 99.3998 224.004C99.1998 225.539 99.9998 228.142 95.3998 228.909C90.7998 229.677 86.3665 228.275 86.3665 228.275Z" fill="#E0855C"/>
<path d="M97.9332 217.932C97.8999 217.932 97.8999 217.932 97.8666 217.932C97.6999 217.898 97.5666 217.731 97.5999 217.565C98.0332 214.862 97.3332 209.624 97.3332 209.59V209.523V209.457C97.6332 208.289 98.2666 204.986 97.3999 203.985C96.6333 203.084 89.2332 202.85 84.7332 202.917C84.5666 202.917 84.3999 202.784 84.3999 202.583C84.3999 202.383 84.5332 202.25 84.7332 202.25C86.7332 202.216 96.6999 202.15 97.8999 203.551C99.0999 204.952 98.1666 208.856 97.9999 209.557C98.0666 210.191 98.6666 214.995 98.2333 217.665C98.2333 217.832 98.0666 217.932 97.9332 217.932Z" fill="#472938"/>
<path d="M97.6665 209.857C97.6665 209.857 97.6332 209.857 97.6665 209.857L86.9332 209.357C86.7332 209.357 86.5999 209.19 86.5999 209.023C86.5999 208.823 86.7332 208.689 86.9332 208.689L97.6665 209.19C97.8665 209.19 97.9999 209.357 97.9999 209.523C97.9999 209.724 97.8332 209.857 97.6665 209.857Z" fill="#472938"/>
<path d="M97.8334 223.704H87.2667C87.0667 223.704 86.9333 223.571 86.9333 223.37C86.9333 223.17 87.0667 223.037 87.2667 223.037H97.8334C98.0334 223.037 98.1667 223.17 98.1667 223.37C98.1667 223.571 98.0334 223.704 97.8334 223.704Z" fill="#472938"/>
<path d="M98.0331 216.43H85.8997C85.6997 216.43 85.5664 216.297 85.5664 216.097C85.5664 215.896 85.6997 215.763 85.8997 215.763H98.0331C98.2331 215.763 98.3664 215.896 98.3664 216.097C98.3664 216.297 98.2331 216.43 98.0331 216.43Z" fill="#472938"/>
<path d="M278.967 160.375L299.167 159.608C300.033 159.575 300.767 160.242 300.8 161.109L302.367 202.817C302.4 203.684 301.733 204.418 300.867 204.452L280.667 205.219C279.8 205.253 279.067 204.585 279.033 203.718L277.467 162.01C277.433 161.109 278.1 160.409 278.967 160.375Z" fill="#3B2645"/>
<path d="M280.6 203.851C280.467 203.851 280.367 203.751 280.367 203.618L278.8 161.91C278.8 161.843 278.834 161.777 278.867 161.743C278.9 161.71 278.967 161.677 279.034 161.677L299.234 160.909C299.367 160.909 299.467 161.009 299.467 161.143L301.034 202.85C301.034 202.984 300.934 203.084 300.8 203.084L280.6 203.851Z" fill="#FEF9EF"/>
<path d="M216.333 155.204C216.333 155.204 237.533 157.339 241.467 174.556C245.4 191.773 252.667 232.679 252.667 232.679C252.667 232.679 268.133 207.889 269.367 203.951C270.6 200.014 274.6 186.701 274.467 182.163C274.333 177.626 278.767 180.862 278.767 186.267L279.433 204.152C279.467 204.752 279.967 205.219 280.567 205.186H280.6L301.067 203.651C301.767 203.618 302.267 203.017 302.233 202.316V202.083C302.233 202.083 300.767 199.047 301.2 197.645C301.633 196.244 305.133 196.11 305.533 196.444C305.933 196.778 308.1 200.948 308.033 202.083C307.967 203.217 305.433 206.754 303.767 207.288C302.1 207.822 285.5 211.826 282.1 216.964C278.7 222.102 263.833 267.113 251.767 270.583C239.7 274.053 227.933 241.321 225.167 231.745C222.4 222.169 216.333 155.204 216.333 155.204Z" fill="#FFEDE5"/>
<path d="M221.667 208.289C222.967 219.333 224.267 228.609 225.167 231.712C226.467 236.183 229.733 245.759 234.1 254.301L235.433 191.406L221.667 208.289Z" fill="#E0855C"/>
<path d="M301.667 184.566C301.667 184.566 308.9 188.269 308.767 189.838C308.634 191.406 307.267 194.208 305.867 194.075C304.467 193.942 301.834 192.54 301.1 190.905C300.367 189.27 300 184.032 301.667 184.566Z" fill="#FFEDE5"/>
<path d="M302.033 190.004C302.033 190.004 309.267 193.708 309.133 195.276C309 196.844 307.633 199.647 306.233 199.514C304.833 199.38 302.2 197.979 301.467 196.344C300.733 194.709 300.367 189.471 302.033 190.004Z" fill="#FFEDE5"/>
<path d="M302.033 177.959C302.033 177.959 309.267 181.663 309.133 183.231C309 184.799 307.633 187.602 306.233 187.469C304.833 187.335 302.2 185.934 301.467 184.299C300.733 182.664 300.367 177.392 302.033 177.959Z" fill="#FFEDE5"/>
<path d="M246.133 245.926C246.067 245.926 246.033 245.926 245.967 245.892C245.8 245.826 245.733 245.592 245.833 245.459L252.367 232.546C252.433 232.379 252.667 232.312 252.8 232.413C252.967 232.479 253.033 232.713 252.933 232.846L246.4 245.759C246.367 245.859 246.267 245.926 246.133 245.926Z" fill="#472938"/>
<path d="M152.5 264.244C152.533 275.088 147.233 286.699 147.233 286.699C147.233 286.699 183.933 307.319 230.533 289.568C230.533 289.568 224.833 274.887 225.566 259.539C187.9 252.532 152.5 264.244 152.5 264.244Z" fill="#FFEDE5"/>
<path d="M118.533 176.625C115.8 180.729 126.333 201.149 136.4 221.802C145.567 201.282 140.2 176.358 137.1 165.647C130 168.383 121.3 172.421 118.533 176.625Z" fill="#FFEDE5"/>
<path d="M225.567 259.572C225.633 257.971 225.8 256.369 226.033 254.768C226.167 253.8 226.333 252.766 226.5 251.665C196.6 243.49 161 252.833 150.967 255.802C151.933 259.105 152.5 261.975 152.5 264.244C152.5 264.244 187.9 252.532 225.567 259.572Z" fill="#FEF9EF"/>
<path d="M136.4 222.903C136.267 222.903 136.167 222.837 136.1 222.703L128.667 206.687C128.6 206.521 128.667 206.32 128.833 206.254C129 206.187 129.2 206.254 129.267 206.42L136.7 222.436C136.767 222.603 136.7 222.803 136.533 222.87C136.5 222.903 136.433 222.903 136.4 222.903Z" fill="#472938"/>
<path d="M193.4 293.606C193.915 293.606 194.333 293.187 194.333 292.671C194.333 292.156 193.915 291.737 193.4 291.737C192.884 291.737 192.467 292.156 192.467 292.671C192.467 293.187 192.884 293.606 193.4 293.606Z" fill="#E0855C"/>
<path d="M233.833 193.374C233.833 193.141 233.833 192.907 233.833 192.707C233.833 192.607 233.833 192.473 233.833 192.373C233.833 192.106 233.833 191.873 233.8 191.606C233.8 191.539 233.8 191.472 233.8 191.372C233.8 191.039 233.766 190.738 233.766 190.438V190.238C233.766 190.004 233.733 189.737 233.733 189.504C233.733 189.404 233.733 189.304 233.7 189.204C233.7 189.003 233.666 188.803 233.666 188.636L233.633 188.303C233.633 188.136 233.6 187.936 233.566 187.769C233.566 187.669 233.533 187.569 233.533 187.435C233.5 187.235 233.5 187.068 233.467 186.868C233.467 186.768 233.433 186.701 233.433 186.601C233.4 186.334 233.367 186.067 233.3 185.8C230.7 169.985 216.3 155.17 216.3 155.17C216.3 155.17 221.9 177.425 223.7 180.028C230.266 189.571 233.933 195.31 233.467 202.917C233.5 202.517 233.533 202.15 233.566 201.749C233.566 201.649 233.566 201.549 233.566 201.449C233.6 201.149 233.6 200.848 233.633 200.581C233.633 200.481 233.633 200.348 233.666 200.248C233.666 199.981 233.7 199.714 233.7 199.414L233.733 199.08C233.733 198.78 233.766 198.513 233.766 198.246C233.766 198.146 233.766 198.079 233.766 197.979C233.8 197.245 233.833 196.511 233.833 195.777C233.833 195.677 233.833 195.61 233.833 195.51C233.833 195.243 233.833 194.976 233.833 194.709V194.375C233.833 194.142 233.833 193.908 233.833 193.675V193.374Z" fill="#FFEDE5"/>
<path d="M223.7 180.061C221.9 177.459 216.333 155.204 216.333 155.204H212.1L147.233 162.144C147.233 162.144 142.667 163.478 137.1 165.614C140.167 176.324 145.567 201.282 136.4 221.769C142.433 234.181 148.267 246.66 150.933 255.802C160.967 252.799 196.567 243.49 226.467 251.665C228.433 239.052 232.233 218.966 233.467 202.95C233.933 195.343 230.267 189.604 223.7 180.061Z" fill="#AB8DA8"/>
<path d="M158.1 238.185C156.5 238.185 154.833 237.985 153.067 237.551C152.9 237.517 152.767 237.317 152.833 237.15C152.867 236.984 153.067 236.85 153.233 236.917C159.567 238.518 164.7 236.683 170.1 234.781C175.233 232.946 180.533 231.078 187.333 231.845C201.067 233.38 223.433 229.677 223.667 229.643C223.867 229.61 224.033 229.743 224.067 229.91C224.1 230.077 223.967 230.277 223.8 230.31C223.567 230.344 201.1 234.081 187.3 232.546C180.667 231.812 175.433 233.647 170.367 235.449C166.3 236.817 162.433 238.185 158.1 238.185Z" fill="#472938"/>
<path d="M209.367 66.25C209.367 66.25 226.767 67.985 221.533 91.141C216.3 114.297 221.467 113.263 226 125.508C230.533 137.753 206.833 129.645 206.833 129.645C206.833 129.645 218.9 147.73 154.767 139.922C101.867 133.482 137.167 105.889 137.167 105.889C137.167 105.889 121.267 107.991 140.3 91.1744C153.7 79.3295 160.833 35.7868 209.367 66.25Z" fill="#3B2645"/>
<path d="M197.833 130.313C197.833 130.313 192.467 149.164 199.833 152.668C205.5 155.371 212.1 155.204 212.1 155.204C212.1 155.204 209.833 205.186 181.833 205.72C153.833 206.254 147.233 162.144 147.233 162.144C147.233 162.144 158.633 158.14 162.033 150.299C165.433 142.458 165.6 131.48 165.6 131.48L197.833 130.313Z" fill="#FFEDE5"/>
<path d="M211.285 116.06C214.138 111.113 214.073 105.729 211.14 104.033C208.206 102.338 203.515 104.974 200.662 109.921C197.808 114.868 197.873 120.253 200.807 121.948C203.74 123.643 208.431 121.007 211.285 116.06Z" fill="#E0855C"/>
<path d="M204.3 116.432C204.2 116.432 204.133 116.399 204.067 116.332C203.933 116.199 203.933 115.999 204.067 115.865L209.1 111.127C209.233 110.994 209.433 110.994 209.567 111.127C209.7 111.261 209.7 111.461 209.567 111.594L204.533 116.332C204.467 116.432 204.4 116.432 204.3 116.432Z" fill="#472938"/>
<path d="M158.838 118.188C162.134 117.408 163.741 112.269 162.427 106.71C161.114 101.151 157.377 97.2774 154.08 98.0579C150.784 98.8385 149.177 103.978 150.491 109.536C151.805 115.095 155.542 118.969 158.838 118.188Z" fill="#FFEDE5"/>
<path d="M196.167 146.395C195.167 139.655 197.833 130.279 197.833 130.279L165.567 131.48C165.567 131.48 165.533 133.916 165.133 137.32C165.133 137.353 181.233 156.872 196.167 146.395Z" fill="#E0855C"/>
<path d="M157.967 111.361C157.867 111.361 157.767 111.294 157.7 111.194L154.5 106.289C154.4 106.122 154.433 105.922 154.6 105.822C154.767 105.722 154.967 105.755 155.067 105.922L158.267 110.827C158.367 110.994 158.333 111.194 158.167 111.294C158.1 111.361 158.033 111.361 157.967 111.361Z" fill="#472938"/>
<path d="M160.1 76.1597C160.1 76.1597 148.633 138.12 175.567 144.56C202.5 151 212.1 93.2097 211.4 81.1979C210.7 69.1862 164.1 65.5493 160.1 76.1597Z" fill="#FFEDE5"/>
<path d="M195.934 104.487C196.8 104.654 197.367 105.488 197.234 106.356L197.067 107.323C196.9 108.191 196.067 108.758 195.2 108.625C194.334 108.458 193.767 107.624 193.9 106.756L194.067 105.789C194.234 104.921 195.067 104.321 195.934 104.487Z" fill="#472938"/>
<path d="M170.833 101.685C171.733 101.685 172.433 102.385 172.433 103.286V104.254C172.433 105.121 171.733 105.855 170.833 105.855C169.967 105.855 169.233 105.155 169.233 104.254V103.286C169.233 102.385 169.933 101.685 170.833 101.685Z" fill="#472938"/>
<path d="M201.8 102.819C201.8 102.819 200.6 101.017 197.133 100.417C193.667 99.8161 192.567 100.016 192.533 98.9153C192.5 97.8142 200.267 96.1125 201.8 102.819Z" fill="#472938"/>
<path d="M165.8 98.248C165.8 98.248 167.533 96.9467 171 97.5139C174.467 98.1145 175.433 98.6483 175.833 97.614C176.233 96.5797 169.467 92.4089 165.8 98.248Z" fill="#472938"/>
<path d="M172.4 121.871L186.8 123.506C186.8 123.506 184.567 133.249 178.2 132.114C171.867 131.013 172.4 121.871 172.4 121.871Z" fill="white"/>
<path d="M181.933 119.469C180.933 119.469 179.833 119.202 178.833 118.735C178.667 118.668 178.6 118.468 178.667 118.301C178.733 118.134 178.933 118.067 179.1 118.134C180.567 118.835 182.2 119.002 183.3 118.568C183.767 118.401 184.067 118.134 184.2 117.834C184.633 116.799 184.467 113.596 184.267 109.893L184.2 108.591C183.833 101.751 187.933 100.45 188.1 100.383C188.267 100.317 188.467 100.417 188.5 100.617C188.567 100.784 188.467 100.984 188.267 101.017C188.1 101.051 184.5 102.252 184.833 108.558L184.9 109.859C185.1 113.796 185.3 116.933 184.767 118.101C184.567 118.568 184.133 118.968 183.5 119.202C183.1 119.402 182.533 119.469 181.933 119.469Z" fill="#472938"/>
<path d="M206.833 110.627C206.833 110.627 209 93.9104 201.8 84.7681C201.8 84.7681 195.7 96.3127 185.7 92.3088C185.7 92.3088 171.967 104.22 157.967 100.75C143.967 97.2803 148.933 64.515 169.233 63.1136C189.533 61.7122 230.833 69.8869 206.833 110.627Z" fill="#3B2645"/>

</svg>
